<svg width="323" height="31" viewBox="0 0 323 31" fill="none" xmlns="http://www.w3.org/2000/svg">
<path d="M11.928 24V18.816H11.064V13.184C11.064 12.288 10.8507 11.616 10.424 11.168C9.99733 10.72 9.31467 10.496 8.376 10.496C7.90667 10.496 7.288 10.5067 6.52 10.528C5.752 10.5493 4.96267 10.5813 4.152 10.624C3.34133 10.6667 2.60533 10.7093 1.944 10.752V6.432C2.43467 6.38933 3.01067 6.34667 3.672 6.304C4.33333 6.26133 5.016 6.22933 5.72 6.208C6.424 6.18667 7.08533 6.176 7.704 6.176C9.496 6.176 11 6.432 12.216 6.944C13.4533 7.456 14.392 8.23467 15.032 9.28C15.672 10.304 15.992 11.6267 15.992 13.248V24H11.928ZM6.328 24.448C5.06933 24.448 3.96 24.224 3 23.776C2.06133 23.328 1.32533 22.688 0.792 21.856C0.258667 21.0027 -0.00799996 19.9893 -0.00799996 18.816C-0.00799996 17.536 0.322667 16.4907 0.984 15.68C1.64533 14.848 2.57333 14.24 3.768 13.856C4.96267 13.4507 6.33867 13.248 7.896 13.248H11.64V16.096H7.864C6.968 16.096 6.27467 16.32 5.784 16.768C5.31467 17.1947 5.08 17.7813 5.08 18.528C5.08 19.232 5.31467 19.808 5.784 20.256C6.27467 20.6827 6.968 20.896 7.864 20.896C8.44 20.896 8.952 20.8 9.4 20.608C9.86933 20.3947 10.2533 20.0427 10.552 19.552C10.8507 19.0613 11.0213 18.3787 11.064 17.504L12.28 18.784C12.1733 20 11.8747 21.024 11.384 21.856C10.9147 22.688 10.2533 23.328 9.4 23.776C8.568 24.224 7.544 24.448 6.328 24.448ZM32.688 24L27.152 15.808H24.688L31.824 6.464H37.2L30.48 15.168L30.544 12.672L38.448 24H32.688ZM20.336 24V0.639999H25.456V24H20.336ZM46.9295 24.544C44.4335 24.544 42.4815 24.032 41.0735 23.008C39.6655 21.984 38.9188 20.544 38.8335 18.688H43.3775C43.4628 19.2427 43.7935 19.744 44.3695 20.192C44.9668 20.6187 45.8522 20.832 47.0255 20.832C47.9215 20.832 48.6575 20.6827 49.2335 20.384C49.8308 20.064 50.1295 19.616 50.1295 19.04C50.1295 18.528 49.9055 18.1227 49.4575 17.824C49.0095 17.504 48.2095 17.28 47.0575 17.152L45.6815 17.024C43.5695 16.8107 41.9802 16.224 40.9135 15.264C39.8682 14.304 39.3455 13.0773 39.3455 11.584C39.3455 10.3467 39.6548 9.312 40.2735 8.48C40.8922 7.648 41.7455 7.01867 42.8335 6.592C43.9428 6.16533 45.2015 5.952 46.6095 5.952C48.8708 5.952 50.6948 6.45333 52.0815 7.456C53.4682 8.43733 54.1935 9.86667 54.2575 11.744H49.7135C49.6282 11.168 49.3295 10.688 48.8175 10.304C48.3055 9.89867 47.5482 9.696 46.5455 9.696C45.7562 9.696 45.1268 9.84533 44.6575 10.144C44.1882 10.4427 43.9535 10.848 43.9535 11.36C43.9535 11.8507 44.1562 12.224 44.5615 12.48C44.9668 12.736 45.6282 12.9173 46.5455 13.024L47.9215 13.152C50.0762 13.3867 51.7508 13.984 52.9455 14.944C54.1402 15.904 54.7375 17.1947 54.7375 18.816C54.7375 19.9893 54.4175 21.0133 53.7775 21.888C53.1375 22.7413 52.2308 23.4027 51.0575 23.872C49.8842 24.32 48.5082 24.544 46.9295 24.544ZM63.9748 24.544C61.9481 24.544 60.3908 23.8933 59.3028 22.592C58.2148 21.2693 57.6708 19.2853 57.6708 16.64V6.464H62.7908V16.896C62.7908 17.8347 63.0574 18.5813 63.5908 19.136C64.1241 19.6907 64.8388 19.968 65.7348 19.968C66.6521 19.968 67.3988 19.68 67.9748 19.104C68.5508 18.528 68.8388 17.7493 68.8388 16.768V6.464H73.9588V24H69.8948V16.608H70.2468C70.2468 18.3787 70.0121 19.8613 69.5428 21.056C69.0948 22.2293 68.4228 23.104 67.5268 23.68C66.6308 24.256 65.5214 24.544 64.1988 24.544H63.9748ZM78.9038 24V0.639999H84.0558V24H78.9038ZM76.8238 4.416V0.639999H84.0558V4.416H76.8238ZM96.7415 24.224C94.9708 24.224 93.5415 24.0107 92.4535 23.584C91.3655 23.136 90.5655 22.4 90.0535 21.376C89.5628 20.3307 89.3175 18.9227 89.3175 17.152V1.728H94.0855V17.344C94.0855 18.176 94.2988 18.816 94.7255 19.264C95.1735 19.6907 95.8028 19.904 96.6135 19.904H99.2055V24.224H96.7415ZM86.6615 10.208V6.464H99.2055V10.208H86.6615ZM113.178 24V18.816H112.314V13.184C112.314 12.288 112.101 11.616 111.674 11.168C111.247 10.72 110.565 10.496 109.626 10.496C109.157 10.496 108.538 10.5067 107.77 10.528C107.002 10.5493 106.213 10.5813 105.402 10.624C104.591 10.6667 103.855 10.7093 103.194 10.752V6.432C103.685 6.38933 104.261 6.34667 104.922 6.304C105.583 6.26133 106.266 6.22933 106.97 6.208C107.674 6.18667 108.335 6.176 108.954 6.176C110.746 6.176 112.25 6.432 113.466 6.944C114.703 7.456 115.642 8.23467 116.282 9.28C116.922 10.304 117.242 11.6267 117.242 13.248V24H113.178ZM107.578 24.448C106.319 24.448 105.21 24.224 104.25 23.776C103.311 23.328 102.575 22.688 102.042 21.856C101.509 21.0027 101.242 19.9893 101.242 18.816C101.242 17.536 101.573 16.4907 102.234 15.68C102.895 14.848 103.823 14.24 105.018 13.856C106.213 13.4507 107.589 13.248 109.146 13.248H112.89V16.096H109.114C108.218 16.096 107.525 16.32 107.034 16.768C106.565 17.1947 106.33 17.7813 106.33 18.528C106.33 19.232 106.565 19.808 107.034 20.256C107.525 20.6827 108.218 20.896 109.114 20.896C109.69 20.896 110.202 20.8 110.65 20.608C111.119 20.3947 111.503 20.0427 111.802 19.552C112.101 19.0613 112.271 18.3787 112.314 17.504L113.53 18.784C113.423 20 113.125 21.024 112.634 21.856C112.165 22.688 111.503 23.328 110.65 23.776C109.818 24.224 108.794 24.448 107.578 24.448ZM121.586 24V6.464H125.65V13.984H125.362C125.362 12.192 125.586 10.6987 126.034 9.504C126.503 8.30933 127.207 7.41333 128.146 6.816C129.085 6.21867 130.226 5.92 131.57 5.92H131.794C133.842 5.92 135.399 6.592 136.466 7.936C137.554 9.25867 138.098 11.2747 138.098 13.984V24H132.978V13.696C132.978 12.7573 132.701 11.9893 132.146 11.392C131.591 10.7947 130.845 10.496 129.906 10.496C128.946 10.496 128.167 10.8053 127.57 11.424C126.994 12.0213 126.706 12.8107 126.706 13.792V24H121.586ZM149.198 30.656V27.904H151.662C152.388 27.904 152.996 27.808 153.486 27.616C153.998 27.4453 154.414 27.1467 154.734 26.72C155.076 26.2933 155.353 25.728 155.566 25.024L160.942 6.912H163.95L158.254 25.824C157.913 26.9547 157.433 27.872 156.814 28.576C156.196 29.3013 155.438 29.824 154.542 30.144C153.668 30.4853 152.644 30.656 151.47 30.656H149.198ZM154.414 23.616V21.056H158.126V23.616H154.414ZM154.094 23.616L147.982 6.912H151.118L156.974 23.616H154.094ZM174.802 24.576C173.308 24.576 172.018 24.32 170.93 23.808C169.842 23.296 168.956 22.624 168.274 21.792C167.591 20.9387 167.079 19.9893 166.738 18.944C166.418 17.8987 166.258 16.832 166.258 15.744V15.168C166.258 14.0587 166.418 12.9813 166.738 11.936C167.079 10.8907 167.591 9.952 168.274 9.12C168.956 8.26667 169.82 7.59467 170.866 7.104C171.932 6.592 173.18 6.336 174.61 6.336C176.466 6.336 177.991 6.74133 179.186 7.552C180.402 8.34133 181.298 9.36533 181.874 10.624C182.471 11.8827 182.77 13.2267 182.77 14.656V16.032H167.602V13.728H180.53L179.826 14.976C179.826 13.76 179.634 12.7147 179.25 11.84C178.866 10.944 178.29 10.2507 177.522 9.76C176.754 9.26933 175.783 9.024 174.61 9.024C173.394 9.024 172.38 9.30133 171.57 9.856C170.78 10.4107 170.183 11.168 169.778 12.128C169.394 13.088 169.202 14.1973 169.202 15.456C169.202 16.672 169.394 17.7707 169.778 18.752C170.183 19.712 170.802 20.48 171.634 21.056C172.466 21.6107 173.522 21.888 174.802 21.888C176.146 21.888 177.234 21.5893 178.066 20.992C178.919 20.3947 179.431 19.7013 179.602 18.912H182.482C182.247 20.0853 181.778 21.0987 181.074 21.952C180.37 22.8053 179.484 23.456 178.418 23.904C177.351 24.352 176.146 24.576 174.802 24.576ZM192.732 24.512C190.492 24.512 188.753 24.032 187.516 23.072C186.3 22.112 185.67 20.8 185.628 19.136H188.508C188.55 19.7973 188.881 20.4267 189.5 21.024C190.14 21.6 191.217 21.888 192.732 21.888C194.097 21.888 195.142 21.6213 195.868 21.088C196.593 20.5333 196.956 19.8613 196.956 19.072C196.956 18.368 196.689 17.824 196.156 17.44C195.622 17.0347 194.758 16.768 193.564 16.64L191.708 16.448C190.086 16.2773 188.764 15.7973 187.74 15.008C186.716 14.1973 186.204 13.0667 186.204 11.616C186.204 10.528 186.481 9.6 187.036 8.832C187.59 8.04267 188.358 7.44533 189.34 7.04C190.321 6.61333 191.452 6.4 192.732 6.4C194.652 6.4 196.209 6.82667 197.404 7.68C198.598 8.53333 199.217 9.80267 199.26 11.488H196.38C196.358 10.8053 196.038 10.2293 195.42 9.76C194.822 9.26933 193.926 9.024 192.732 9.024C191.537 9.024 190.63 9.26933 190.012 9.76C189.393 10.2507 189.084 10.8693 189.084 11.616C189.084 12.256 189.297 12.768 189.724 13.152C190.172 13.536 190.897 13.7813 191.9 13.888L193.756 14.08C195.59 14.272 197.062 14.784 198.172 15.616C199.281 16.4267 199.836 17.5787 199.836 19.072C199.836 20.1387 199.526 21.088 198.908 21.92C198.31 22.7307 197.478 23.3707 196.412 23.84C195.345 24.288 194.118 24.512 192.732 24.512ZM209.888 24.512C207.648 24.512 205.909 24.032 204.672 23.072C203.456 22.112 202.826 20.8 202.784 19.136H205.664C205.706 19.7973 206.037 20.4267 206.656 21.024C207.296 21.6 208.373 21.888 209.888 21.888C211.253 21.888 212.298 21.6213 213.024 21.088C213.749 20.5333 214.112 19.8613 214.112 19.072C214.112 18.368 213.845 17.824 213.312 17.44C212.778 17.0347 211.914 16.768 210.72 16.64L208.864 16.448C207.242 16.2773 205.92 15.7973 204.896 15.008C203.872 14.1973 203.36 13.0667 203.36 11.616C203.36 10.528 203.637 9.6 204.192 8.832C204.746 8.04267 205.514 7.44533 206.496 7.04C207.477 6.61333 208.608 6.4 209.888 6.4C211.808 6.4 213.365 6.82667 214.56 7.68C215.754 8.53333 216.373 9.80267 216.416 11.488H213.536C213.514 10.8053 213.194 10.2293 212.576 9.76C211.978 9.26933 211.082 9.024 209.888 9.024C208.693 9.024 207.786 9.26933 207.168 9.76C206.549 10.2507 206.24 10.8693 206.24 11.616C206.24 12.256 206.453 12.768 206.88 13.152C207.328 13.536 208.053 13.7813 209.056 13.888L210.912 14.08C212.746 14.272 214.218 14.784 215.328 15.616C216.437 16.4267 216.992 17.5787 216.992 19.072C216.992 20.1387 216.682 21.088 216.064 21.92C215.466 22.7307 214.634 23.3707 213.568 23.84C212.501 24.288 211.274 24.512 209.888 24.512ZM228.708 24.576C227.215 24.576 225.924 24.32 224.836 23.808C223.748 23.296 222.863 22.624 222.18 21.792C221.497 20.9387 220.985 19.9893 220.644 18.944C220.324 17.8987 220.164 16.832 220.164 15.744V15.168C220.164 14.0587 220.324 12.9813 220.644 11.936C220.985 10.8907 221.497 9.952 222.18 9.12C222.863 8.26667 223.727 7.59467 224.772 7.104C225.839 6.592 227.087 6.336 228.516 6.336C230.372 6.336 231.897 6.74133 233.092 7.552C234.308 8.34133 235.204 9.36533 235.78 10.624C236.377 11.8827 236.676 13.2267 236.676 14.656V16.032H221.508V13.728H234.436L233.732 14.976C233.732 13.76 233.54 12.7147 233.156 11.84C232.772 10.944 232.196 10.2507 231.428 9.76C230.66 9.26933 229.689 9.024 228.516 9.024C227.3 9.024 226.287 9.30133 225.476 9.856C224.687 10.4107 224.089 11.168 223.684 12.128C223.3 13.088 223.108 14.1973 223.108 15.456C223.108 16.672 223.3 17.7707 223.684 18.752C224.089 19.712 224.708 20.48 225.54 21.056C226.372 21.6107 227.428 21.888 228.708 21.888C230.052 21.888 231.14 21.5893 231.972 20.992C232.825 20.3947 233.337 19.7013 233.508 18.912H236.388C236.153 20.0853 235.684 21.0987 234.98 21.952C234.276 22.8053 233.391 23.456 232.324 23.904C231.257 24.352 230.052 24.576 228.708 24.576ZM241.038 24V6.912H243.47V14.24H243.086C243.086 12.5547 243.31 11.136 243.758 9.984C244.227 8.81067 244.931 7.92533 245.87 7.328C246.808 6.70933 247.992 6.4 249.422 6.4H249.55C251.704 6.4 253.294 7.072 254.318 8.416C255.363 9.76 255.886 11.7013 255.886 14.24V24H252.814V13.6C252.814 12.2773 252.44 11.2213 251.694 10.432C250.947 9.62133 249.923 9.216 248.622 9.216C247.278 9.216 246.19 9.632 245.358 10.464C244.526 11.296 244.11 12.4053 244.11 13.792V24H241.038ZM270.531 24.576C269.123 24.576 267.864 24.2667 266.755 23.648C265.667 23.0293 264.803 22.1333 264.163 20.96C263.523 19.7653 263.171 18.336 263.107 16.672H263.939V24H261.507V0.639999H264.579V12L263.491 14.336C263.576 12.48 263.949 10.9653 264.611 9.792C265.272 8.61867 266.136 7.75467 267.203 7.2C268.291 6.624 269.485 6.336 270.787 6.336C272.003 6.336 273.112 6.57067 274.115 7.04C275.117 7.488 275.981 8.11733 276.707 8.928C277.432 9.71733 277.987 10.6453 278.371 11.712C278.755 12.7573 278.947 13.888 278.947 15.104V15.68C278.947 16.896 278.744 18.0373 278.339 19.104C277.955 20.1707 277.389 21.12 276.642 21.952C275.896 22.7627 275 23.4027 273.955 23.872C272.931 24.3413 271.789 24.576 270.531 24.576ZM270.179 21.888C271.331 21.888 272.333 21.6107 273.187 21.056C274.04 20.5013 274.701 19.744 275.171 18.784C275.64 17.8027 275.875 16.672 275.875 15.392C275.875 14.112 275.629 12.992 275.139 12.032C274.669 11.072 274.008 10.336 273.155 9.824C272.301 9.29067 271.309 9.024 270.179 9.024C269.155 9.024 268.205 9.25867 267.331 9.728C266.456 10.176 265.752 10.8373 265.219 11.712C264.707 12.5653 264.451 13.6 264.451 14.816V16.288C264.451 17.4613 264.717 18.464 265.251 19.296C265.784 20.128 266.488 20.768 267.363 21.216C268.237 21.664 269.176 21.888 270.179 21.888ZM293.905 24V18.88H293.393V12.96C293.393 11.7867 293.084 10.9013 292.465 10.304C291.868 9.70667 290.982 9.408 289.809 9.408C289.148 9.408 288.465 9.41867 287.761 9.44C287.057 9.46133 286.385 9.48267 285.745 9.504C285.105 9.52533 284.55 9.55733 284.081 9.6V6.912C284.55 6.86933 285.041 6.83733 285.553 6.816C286.086 6.77333 286.63 6.752 287.185 6.752C287.74 6.73067 288.273 6.72 288.785 6.72C290.534 6.72 291.964 6.93333 293.073 7.36C294.182 7.76533 295.004 8.43733 295.537 9.376C296.07 10.3147 296.337 11.584 296.337 13.184V24H293.905ZM288.305 24.448C287.025 24.448 285.916 24.2347 284.977 23.808C284.06 23.36 283.345 22.72 282.833 21.888C282.342 21.056 282.097 20.0533 282.097 18.88C282.097 17.664 282.364 16.6507 282.897 15.84C283.452 15.0293 284.252 14.4213 285.297 14.016C286.342 13.5893 287.601 13.376 289.073 13.376H293.713V15.68H288.945C287.708 15.68 286.758 15.9787 286.097 16.576C285.436 17.1733 285.105 17.9413 285.105 18.88C285.105 19.8187 285.436 20.576 286.097 21.152C286.758 21.728 287.708 22.016 288.945 22.016C289.67 22.016 290.364 21.888 291.025 21.632C291.686 21.3547 292.23 20.9067 292.657 20.288C293.105 19.648 293.35 18.7733 293.393 17.664L294.225 18.88C294.118 20.096 293.82 21.12 293.329 21.952C292.86 22.7627 292.198 23.3813 291.345 23.808C290.513 24.2347 289.5 24.448 288.305 24.448ZM300.761 30.656V27.904H303.225C303.95 27.904 304.558 27.808 305.049 27.616C305.561 27.4453 305.977 27.1467 306.297 26.72C306.638 26.2933 306.915 25.728 307.129 25.024L312.505 6.912H315.513L309.817 25.824C309.475 26.9547 308.995 27.872 308.377 28.576C307.758 29.3013 307.001 29.824 306.105 30.144C305.23 30.4853 304.206 30.656 303.033 30.656H300.761ZM305.977 23.616V21.056H309.689V23.616H305.977ZM305.657 23.616L299.545 6.912H302.681L308.537 23.616H305.657Z" fill="white"/>
<path d="M318.805 24V20.096H322.517V24H318.805Z" fill="#DE4433"/>
</svg>
